<svg xmlns="http://www.w3.org/2000/svg" width="211" height="48" viewBox="0 0 211 48" fill="none"><g clip-path="url(#clip0_207_1528)"><g clip-path="url(#clip1_207_1528)"><path d="M103.942 33.7548C104.546 34.0064 105.138 34.2329 105.716 34.4341C106.32 34.6103 106.911 34.7487 107.49 34.8493C108.069 34.9248 108.622 34.9625 109.151 34.9625C110.031 34.9625 110.824 34.8367 111.528 34.5851C112.258 34.3083 112.837 33.8932 113.264 33.3397C113.692 32.7861 113.906 32.0691 113.906 31.1884C113.906 30.2575 113.629 29.5153 113.076 28.9617C112.547 28.383 111.881 27.9176 111.075 27.5653C110.296 27.1879 109.528 26.8482 108.773 26.5463C107.842 26.1689 106.949 25.7663 106.094 25.3386C105.263 24.9109 104.521 24.4203 103.867 23.8667C103.238 23.3132 102.735 22.6464 102.357 21.8665C101.98 21.0865 101.791 20.1556 101.791 19.0736C101.791 18.0169 101.98 17.0608 102.357 16.2053C102.735 15.3499 103.263 14.6202 103.942 14.0164C104.647 13.4125 105.477 12.9471 106.433 12.62C107.389 12.2929 108.459 12.1293 109.641 12.1293C110.522 12.1293 111.453 12.2174 112.434 12.3935C113.441 12.5697 114.472 12.859 115.529 13.2616C116.133 13.488 116.523 13.8151 116.699 14.2428C116.875 14.6706 116.875 15.0983 116.699 15.526C116.548 15.9537 116.259 16.2682 115.831 16.4695C115.428 16.6708 114.925 16.6582 114.321 16.4318C113.491 16.1299 112.673 15.9034 111.868 15.7525C111.088 15.6015 110.346 15.526 109.641 15.526C108.761 15.526 107.981 15.6518 107.301 15.9034C106.647 16.155 106.131 16.545 105.754 17.0734C105.377 17.6018 105.188 18.2685 105.188 19.0736C105.188 19.9291 105.44 20.621 105.943 21.1494C106.446 21.6778 107.075 22.1181 107.83 22.4703C108.585 22.7974 109.327 23.0993 110.056 23.3761C110.987 23.7787 111.881 24.1938 112.736 24.6215C113.617 25.0493 114.397 25.5525 115.076 26.1312C115.755 26.7099 116.296 27.4144 116.699 28.2447C117.101 29.0498 117.303 30.0311 117.303 31.1884C117.303 32.3458 117.089 33.3648 116.661 34.2454C116.259 35.1261 115.68 35.8809 114.925 36.5099C114.195 37.1137 113.327 37.5792 112.321 37.9063C111.34 38.2082 110.283 38.3592 109.151 38.3592C108.647 38.3592 108.119 38.3214 107.566 38.246C107.037 38.1956 106.496 38.1076 105.943 37.9818C105.389 37.856 104.823 37.705 104.244 37.5289C103.691 37.3276 103.137 37.1012 102.584 36.8496C102.005 36.598 101.628 36.2583 101.452 35.8306C101.301 35.3777 101.313 34.9499 101.489 34.5474C101.691 34.1196 102.005 33.8177 102.433 33.6416C102.861 33.4655 103.364 33.5032 103.942 33.7548ZM121.586 42.8126C121.586 42.3094 121.586 41.7559 121.586 41.152C121.586 40.5482 121.586 39.9066 121.586 39.2272C121.586 38.5731 121.586 37.9063 121.586 37.227C121.586 36.5728 121.586 35.818 121.586 34.9625C121.586 34.1071 121.586 33.151 121.586 32.0942C121.586 31.0123 121.586 29.8675 121.586 28.6598C121.586 26.7476 121.976 25.0619 122.756 23.6025C123.536 22.1432 124.605 20.9984 125.964 20.1681C127.322 19.3378 128.87 18.9227 130.606 18.9227C132.317 18.9227 133.851 19.3504 135.21 20.2059C136.594 21.0362 137.688 22.1936 138.494 23.678C139.299 25.1373 139.701 26.8231 139.701 28.7353C139.701 30.1694 139.462 31.4904 138.984 32.6981C138.531 33.8806 137.89 34.9122 137.059 35.7928C136.229 36.6483 135.26 37.315 134.153 37.7931C133.071 38.2711 131.902 38.5102 130.643 38.5102C129.36 38.5102 128.165 38.2711 127.058 37.7931C125.951 37.2899 124.982 36.6105 124.152 35.7551C123.347 34.8745 122.718 33.8429 122.265 32.6603C121.812 31.4778 121.586 30.1946 121.586 28.8108C121.586 27.9805 121.586 27.0873 121.586 26.1312C121.586 25.1499 121.586 24.219 121.586 23.3384C121.586 22.4326 121.586 21.6778 121.586 21.0739C121.586 20.4197 121.749 19.9417 122.076 19.6398C122.429 19.3127 122.831 19.1491 123.284 19.1491C123.737 19.1491 124.127 19.3127 124.454 19.6398C124.806 19.9668 124.982 20.4449 124.982 21.0739C124.982 21.9797 124.982 22.7848 124.982 23.4893C124.982 24.1938 124.982 24.9486 124.982 25.7538C124.982 26.5589 124.982 27.5779 124.982 28.8108C124.982 29.7165 125.121 30.5468 125.398 31.3017C125.674 32.0565 126.064 32.7232 126.567 33.3019C127.071 33.8806 127.662 34.3335 128.341 34.6606C129.046 34.9625 129.813 35.1135 130.643 35.1135C131.449 35.1135 132.191 34.9625 132.87 34.6606C133.575 34.3335 134.179 33.8932 134.682 33.3397C135.185 32.761 135.575 32.0816 135.852 31.3017C136.154 30.5217 136.305 29.6662 136.305 28.7353C136.305 27.8043 136.166 26.9489 135.889 26.1689C135.613 25.3889 135.223 24.7096 134.719 24.1309C134.216 23.5522 133.612 23.1119 132.908 22.81C132.203 22.4829 131.436 22.3194 130.606 22.3194C129.474 22.3194 128.48 22.5961 127.624 23.1497C126.794 23.678 126.14 24.4203 125.662 25.3764C125.209 26.3325 124.982 27.4269 124.982 28.6598C124.982 29.4901 124.982 30.3707 124.982 31.3017C124.982 32.2074 124.982 33.151 124.982 34.1322C124.982 35.0883 124.982 36.057 124.982 37.0383C124.982 37.8937 124.982 38.636 124.982 39.265C124.982 39.894 124.982 40.4853 124.982 41.0388C124.982 41.5923 124.982 42.1836 124.982 42.8126C124.982 43.4416 124.806 43.9197 124.454 44.2468C124.127 44.5738 123.737 44.7374 123.284 44.7374C122.831 44.7374 122.429 44.5738 122.076 44.2468C121.749 43.9197 121.586 43.4416 121.586 42.8126ZM143.777 36.5854C143.777 36.057 143.777 35.4909 143.777 34.887C143.777 34.2832 143.777 33.6793 143.777 33.0755C143.777 32.4716 143.777 31.9055 143.777 31.3771C143.777 29.3643 143.777 27.1628 143.777 24.7725C143.777 22.3823 143.777 19.6901 143.777 16.696C143.777 16.0166 143.777 15.2241 143.777 14.3183C143.777 13.4125 143.777 12.5948 143.777 11.8652C143.777 11.2361 143.94 10.7581 144.267 10.431C144.62 10.1039 145.022 9.94038 145.475 9.94038C145.928 9.94038 146.318 10.1039 146.645 10.431C146.997 10.7581 147.173 11.2361 147.173 11.8652C147.173 12.469 147.173 13.0351 147.173 13.5635C147.173 14.0667 147.173 14.5825 147.173 15.1109C147.173 15.6141 147.173 16.1424 147.173 16.696C147.173 18.0295 147.173 19.4511 147.173 20.9607C147.173 22.4703 147.173 24.0932 147.173 25.8292C147.173 27.5402 147.173 29.3895 147.173 31.3771C147.173 32.0062 147.173 32.5974 147.173 33.151C147.173 33.7045 147.173 34.258 147.173 34.8116C147.173 35.3651 147.173 35.9564 147.173 36.5854C147.173 37.2144 146.997 37.6924 146.645 38.0195C146.318 38.3466 145.928 38.5102 145.475 38.5102C145.022 38.5102 144.62 38.3466 144.267 38.0195C143.94 37.6924 143.777 37.2144 143.777 36.5854ZM152.512 36.5854C152.512 36.057 152.512 35.5161 152.512 34.9625C152.512 34.409 152.512 33.8806 152.512 33.3774C152.512 32.849 152.512 32.3458 152.512 31.8678C152.512 31.0123 152.512 30.2701 152.512 29.6411C152.512 29.0121 152.512 28.383 152.512 27.754C152.512 27.125 152.512 26.3828 152.512 25.5273C152.512 25.0493 152.512 24.5712 152.512 24.0932C152.512 23.6151 152.512 23.1119 152.512 22.5835C152.512 22.03 152.512 21.4387 152.512 20.8097C152.512 20.1807 152.675 19.7152 153.002 19.4133C153.354 19.0862 153.757 18.9227 154.21 18.9227C154.663 18.9227 155.053 19.0862 155.38 19.4133C155.732 19.7152 155.908 20.1807 155.908 20.8097C155.908 21.4639 155.908 22.0426 155.908 22.5458C155.908 23.0239 155.908 23.5019 155.908 23.98C155.908 24.4328 155.908 24.9486 155.908 25.5273C155.908 26.106 155.908 26.7853 155.908 27.5653C155.908 28.3201 155.908 29.0875 155.908 29.8675C155.908 30.6223 155.908 31.2891 155.908 31.8678C155.908 32.4465 155.908 32.9874 155.908 33.4906C155.908 33.9938 155.908 34.497 155.908 35.0003C155.908 35.4783 155.908 36.0067 155.908 36.5854C155.908 37.2144 155.732 37.6924 155.38 38.0195C155.053 38.3466 154.663 38.5102 154.21 38.5102C153.757 38.5102 153.354 38.3592 153.002 38.0573C152.675 37.7302 152.512 37.2395 152.512 36.5854ZM152.512 14.0919C152.512 13.8151 152.512 13.5887 152.512 13.4125C152.512 13.2364 152.512 13.0603 152.512 12.8842C152.512 12.708 152.512 12.4942 152.512 12.2426C152.512 11.6639 152.675 11.2361 153.002 10.9594C153.354 10.6575 153.757 10.5065 154.21 10.5065C154.663 10.5065 155.053 10.6575 155.38 10.9594C155.732 11.2361 155.908 11.6639 155.908 12.2426C155.908 12.4942 155.908 12.708 155.908 12.8842C155.908 13.0603 155.908 13.2364 155.908 13.4125C155.908 13.5887 155.908 13.8151 155.908 14.0919C155.908 14.6706 155.732 15.1109 155.38 15.4128C155.053 15.6896 154.663 15.8279 154.21 15.8279C153.757 15.8279 153.354 15.6896 153.002 15.4128C152.675 15.1109 152.512 14.6706 152.512 14.0919ZM174.494 36.5854C174.494 36.057 174.494 35.5035 174.494 34.9248C174.494 34.3209 174.494 33.7297 174.494 33.151C174.494 32.5471 174.494 31.9936 174.494 31.4904C174.494 30.8865 174.494 30.2198 174.494 29.4901C174.494 28.7353 174.494 27.9176 174.494 27.037C174.494 25.9802 174.317 25.1122 173.965 24.4328C173.638 23.7283 173.147 23.2 172.493 22.8477C171.839 22.4955 171.034 22.3194 170.078 22.3194C169.248 22.3194 168.493 22.4577 167.813 22.7345C167.134 22.9861 166.543 23.3635 166.04 23.8667C165.562 24.3699 165.184 24.999 164.907 25.7538C164.631 26.5086 164.492 27.3766 164.492 28.3579C164.492 28.7856 164.492 29.3517 164.492 30.0562C164.492 30.7356 164.492 31.4652 164.492 32.2452C164.492 33.0252 164.492 33.8051 164.492 34.5851C164.492 35.3399 164.492 36.0067 164.492 36.5854C164.492 37.0886 164.379 37.5037 164.153 37.8308C163.926 38.1327 163.637 38.334 163.285 38.4347C162.957 38.5353 162.618 38.5353 162.266 38.4347C161.938 38.334 161.662 38.1327 161.435 37.8308C161.209 37.5037 161.096 37.0886 161.096 36.5854C161.096 36.1073 161.096 35.4657 161.096 34.6606C161.096 33.8303 161.096 32.9371 161.096 31.981C161.096 30.9997 161.096 30.0562 161.096 29.1504C161.096 28.2195 161.096 27.4144 161.096 26.735C161.096 26.0557 161.096 25.5902 161.096 25.3386C161.096 24.8354 161.096 24.3322 161.096 23.829C161.096 23.3258 161.096 22.8226 161.096 22.3194C161.096 21.8161 161.096 21.3129 161.096 20.8097C161.096 20.1807 161.259 19.7027 161.586 19.3756C161.938 19.0485 162.341 18.8849 162.794 18.8849C163.247 18.8849 163.637 19.0485 163.964 19.3756C164.316 19.7027 164.492 20.1807 164.492 20.8097C164.492 21.3633 164.492 21.879 164.492 22.3571C164.492 22.8351 164.492 23.3132 164.492 23.7912C164.492 24.2693 164.492 24.7851 164.492 25.3386C164.492 25.4896 164.492 25.9047 164.492 26.5841C164.492 27.2382 164.492 28.0434 164.492 28.9995C164.492 29.9304 164.492 30.8991 164.492 31.9055C164.492 32.8868 164.492 33.8051 164.492 34.6606C164.492 35.4909 164.492 36.1325 164.492 36.5854C164.492 37.0886 164.379 37.5037 164.153 37.8308C163.926 38.1327 163.637 38.334 163.285 38.4347C162.957 38.5353 162.618 38.5353 162.266 38.4347C161.938 38.334 161.662 38.1327 161.435 37.8308C161.209 37.5037 161.096 37.0886 161.096 36.5854C161.096 36.0067 161.096 35.4028 161.096 34.7738C161.096 34.1196 161.096 33.4529 161.096 32.7736C161.096 32.0942 161.096 31.4149 161.096 30.7356C161.096 30.0311 161.096 29.3643 161.096 28.7353C161.096 27.4521 161.322 26.2192 161.775 25.0367C162.253 23.8541 162.907 22.81 163.737 21.9042C164.568 20.9733 165.549 20.2436 166.681 19.7152C167.813 19.1869 169.034 18.9227 170.342 18.9227C171.424 18.9227 172.418 19.0988 173.324 19.4511C174.255 19.8033 175.06 20.3317 175.739 21.0362C176.418 21.7155 176.947 22.5584 177.324 23.5648C177.702 24.5712 177.89 25.7286 177.89 27.037C177.89 27.6156 177.89 28.2824 177.89 29.0372C177.89 29.7669 177.89 30.5846 177.89 31.4904C177.89 32.1194 177.89 32.7107 177.89 33.2642C177.89 33.7926 177.89 34.3209 177.89 34.8493C177.89 35.3777 177.89 35.9564 177.89 36.5854C177.89 37.2144 177.714 37.6924 177.362 38.0195C177.035 38.3466 176.645 38.5102 176.192 38.5102C175.739 38.5102 175.336 38.3466 174.984 38.0195C174.657 37.6924 174.494 37.2144 174.494 36.5854ZM184.324 36.5854C184.324 35.9815 184.324 35.4406 184.324 34.9625C184.324 34.4845 184.324 34.0064 184.324 33.5284C184.324 33.0503 184.324 32.4968 184.324 31.8678C184.324 31.0375 184.324 30.2449 184.324 29.4901C184.324 28.7101 184.324 27.905 184.324 27.0747C184.324 26.2192 184.324 25.2757 184.324 24.2441C184.324 23.2126 184.324 22.0048 184.324 20.621C184.324 20.0926 184.324 19.5391 184.324 18.9604C184.324 18.3817 184.324 17.8282 184.324 17.2998C184.324 16.7463 184.324 16.2808 184.324 15.9034C184.324 15.2744 184.488 14.7964 184.815 14.4693C185.167 14.1422 185.57 13.9786 186.022 13.9786C186.475 13.9786 186.865 14.1422 187.192 14.4693C187.545 14.7964 187.721 15.2744 187.721 15.9034C187.721 16.3312 187.721 16.7086 187.721 17.0356C187.721 17.3627 187.721 17.6898 187.721 18.0169C187.721 18.344 187.721 18.7214 187.721 19.1491C187.721 19.5517 187.721 20.0423 187.721 20.621C187.721 21.552 187.721 22.4326 187.721 23.2629C187.721 24.068 187.721 24.8983 187.721 25.7538C187.721 26.6092 187.721 27.5276 187.721 28.5088C187.721 29.4901 187.721 30.6097 187.721 31.8678C187.721 32.5471 187.721 33.1132 187.721 33.5661C187.721 34.019 187.721 34.4719 187.721 34.9248C187.721 35.3525 187.721 35.906 187.721 36.5854C187.721 37.2144 187.545 37.6924 187.192 38.0195C186.865 38.3466 186.475 38.5102 186.022 38.5102C185.57 38.5102 185.167 38.3592 184.815 38.0573C184.488 37.7302 184.324 37.2395 184.324 36.5854ZM190.4 22.6968C190.023 22.6968 189.658 22.6968 189.306 22.6968C188.954 22.6968 188.601 22.6968 188.249 22.6968C187.494 22.6968 186.79 22.6968 186.136 22.6968C185.507 22.6968 184.815 22.6968 184.06 22.6968C183.834 22.6968 183.62 22.6968 183.418 22.6968C183.217 22.6968 182.991 22.6968 182.739 22.6968C182.513 22.6968 182.274 22.6968 182.022 22.6968C181.393 22.6968 180.915 22.5332 180.588 22.2061C180.261 21.8539 180.097 21.4513 180.097 20.9984C180.097 20.5455 180.261 20.1556 180.588 19.8285C180.915 19.4762 181.393 19.3001 182.022 19.3001C182.349 19.3001 182.613 19.3001 182.815 19.3001C183.016 19.3001 183.204 19.3001 183.381 19.3001C183.582 19.3001 183.808 19.3001 184.06 19.3001C184.764 19.3001 185.456 19.3001 186.136 19.3001C186.84 19.3001 187.545 19.3001 188.249 19.3001C188.652 19.3001 189.004 19.3001 189.306 19.3001C189.633 19.3001 189.998 19.3001 190.4 19.3001C191.029 19.3001 191.507 19.4762 191.835 19.8285C192.162 20.1556 192.325 20.5455 192.325 20.9984C192.325 21.4513 192.162 21.8539 191.835 22.2061C191.507 22.5332 191.029 22.6968 190.4 22.6968ZM205.192 23.3006C204.74 23.0993 204.287 22.9232 203.834 22.7722C203.381 22.6213 202.928 22.5081 202.475 22.4326C202.047 22.3571 201.62 22.3194 201.192 22.3194C200.613 22.3194 200.072 22.3948 199.569 22.5458C199.066 22.6968 198.651 22.9358 198.324 23.2629C198.022 23.5648 197.871 23.9674 197.871 24.4706C197.871 24.7977 198.009 25.0996 198.286 25.3764C198.563 25.628 198.915 25.8544 199.343 26.0557C199.77 26.257 200.211 26.4457 200.664 26.6218C201.116 26.7728 201.519 26.8986 201.871 26.9992C203.079 27.4018 204.173 27.8547 205.155 28.3579C206.161 28.8359 206.954 29.4524 207.532 30.2072C208.136 30.962 208.438 31.9307 208.438 33.1132C208.438 34.1951 208.149 35.1512 207.57 35.9815C206.991 36.7867 206.199 37.4157 205.192 37.8686C204.211 38.2963 203.066 38.5102 201.758 38.5102C200.752 38.5102 199.695 38.3592 198.588 38.0573C197.481 37.7553 196.386 37.315 195.304 36.7363C194.726 36.4344 194.373 36.057 194.248 35.6041C194.147 35.1512 194.197 34.7235 194.399 34.3209C194.625 33.9184 194.952 33.6416 195.38 33.4906C195.833 33.3397 196.336 33.4151 196.889 33.7171C197.443 34.019 197.997 34.2706 198.55 34.4719C199.104 34.6732 199.645 34.8367 200.173 34.9625C200.726 35.0632 201.255 35.1135 201.758 35.1135C202.337 35.1135 202.865 35.0506 203.343 34.9248C203.846 34.7738 204.249 34.56 204.551 34.2832C204.878 33.9813 205.041 33.5913 205.041 33.1132C205.041 32.5848 204.802 32.1445 204.324 31.7923C203.846 31.4149 203.268 31.113 202.588 30.8865C201.934 30.6349 201.343 30.421 200.815 30.2449C199.632 29.8424 198.563 29.4146 197.607 28.9617C196.65 28.4837 195.883 27.905 195.304 27.2257C194.751 26.5212 194.474 25.6028 194.474 24.4706C194.474 23.3635 194.763 22.3948 195.342 21.5645C195.921 20.7342 196.713 20.0926 197.72 19.6398C198.726 19.1617 199.884 18.9227 201.192 18.9227C202.047 18.9227 202.941 19.0359 203.872 19.2624C204.802 19.4636 205.746 19.8033 206.702 20.2814C207.256 20.5581 207.595 20.9229 207.721 21.3758C207.872 21.8036 207.847 22.2187 207.646 22.6213C207.469 23.0238 207.155 23.3132 206.702 23.4893C206.274 23.6654 205.771 23.6025 205.192 23.3006Z" fill="#159EEC"></path><path d="M6.4538 13.9409C6.4538 14.746 6.4538 15.4757 6.4538 16.1299C6.4538 16.784 6.4538 17.5137 6.4538 18.3188C6.4538 19.2246 6.4538 20.3568 6.4538 21.7155C6.4538 23.049 6.4538 24.4706 6.4538 25.9802C6.4538 27.4898 6.4538 28.9617 6.4538 30.3959C6.4538 31.83 6.4538 33.1006 6.4538 34.2077C6.4538 35.2896 6.4538 36.0822 6.4538 36.5854C6.4538 37.0886 6.34058 37.5037 6.11414 37.8308C5.88769 38.1327 5.59835 38.334 5.2461 38.4347C4.91901 38.5353 4.57935 38.5353 4.2271 38.4347C3.90001 38.334 3.62325 38.1327 3.3968 37.8308C3.17036 37.5037 3.05713 37.0886 3.05713 36.5854C3.05713 36.0318 3.05713 35.3525 3.05713 34.5474C3.05713 33.7422 3.05713 32.9245 3.05713 32.0942C3.05713 31.2388 3.05713 30.4588 3.05713 29.7543C3.05713 29.0246 3.05713 28.4837 3.05713 28.1314C3.05713 26.9992 3.29616 26.0557 3.77421 25.3009C4.27742 24.5461 4.91901 23.9799 5.69899 23.6025C6.47896 23.2251 7.29668 23.0364 8.15214 23.0364C10.1398 23.0364 11.9262 23.0364 13.5113 23.0364C15.0964 23.0364 16.5557 23.0364 17.8892 23.0364C18.3421 23.0364 18.6944 22.9861 18.946 22.8855C19.1976 22.7597 19.3611 22.571 19.4366 22.3194C19.5372 22.0677 19.5876 21.7407 19.5876 21.3381C19.5876 21.0613 19.5876 20.6462 19.5876 20.0926C19.5876 19.514 19.5876 18.8724 19.5876 18.1679C19.5876 17.4634 19.5876 16.7463 19.5876 16.0166C19.5876 15.2618 19.5876 14.5699 19.5876 13.9409C19.5876 13.4377 19.7008 13.0351 19.9272 12.7332C20.1537 12.4061 20.4304 12.1922 20.7575 12.0916C21.1098 11.991 21.4494 11.991 21.7765 12.0916C22.1288 12.1922 22.4181 12.4061 22.6446 12.7332C22.871 13.0351 22.9842 13.4377 22.9842 13.9409C22.9842 14.3435 22.9842 15.0228 22.9842 15.9789C22.9842 16.935 22.9842 18.0421 22.9842 19.3001C22.9842 20.5581 22.9842 21.8665 22.9842 23.2251C22.9842 24.5586 22.9842 25.8418 22.9842 27.0747C22.9842 28.3076 22.9842 29.3769 22.9842 30.2827C22.9842 31.1884 22.9842 31.8174 22.9842 32.1697C22.9842 32.6981 22.9842 33.2013 22.9842 33.6793C22.9842 34.1322 22.9842 34.5977 22.9842 35.0757C22.9842 35.5286 22.9842 36.0318 22.9842 36.5854C22.9842 37.2144 22.8081 37.6924 22.4559 38.0195C22.1288 38.3466 21.7388 38.5101 21.2859 38.5101C20.833 38.5101 20.4304 38.3466 20.0782 38.0195C19.7511 37.6924 19.5876 37.2144 19.5876 36.5854C19.5876 36.0822 19.5876 35.5915 19.5876 35.1135C19.5876 34.6103 19.5876 34.1196 19.5876 33.6416C19.5876 33.1384 19.5876 32.6477 19.5876 32.1697C19.5876 31.9181 19.5876 31.3646 19.5876 30.5091C19.5876 29.6536 19.5876 28.6095 19.5876 27.3766C19.5876 26.1438 19.5876 24.8354 19.5876 23.4516C19.5876 22.0677 19.5876 20.7342 19.5876 19.4511C19.5876 18.1427 19.5876 16.9979 19.5876 16.0166C19.5876 15.0354 19.5876 14.3435 19.5876 13.9409C19.5876 13.4377 19.7008 13.0351 19.9272 12.7332C20.1537 12.4061 20.4304 12.1922 20.7575 12.0916C21.1098 11.991 21.4494 11.991 21.7765 12.0916C22.1288 12.1922 22.4181 12.4061 22.6446 12.7332C22.871 13.0351 22.9842 13.4377 22.9842 13.9409C22.9842 14.5699 22.9842 15.2367 22.9842 15.9412C22.9842 16.6205 22.9842 17.2998 22.9842 17.9792C22.9842 18.6585 22.9842 19.2875 22.9842 19.8662C22.9842 20.4449 22.9842 20.9355 22.9842 21.3381C22.9842 22.3445 22.7955 23.2377 22.4181 24.0177C22.0407 24.7725 21.4746 25.3638 20.7198 25.7915C19.965 26.2192 19.0215 26.4331 17.8892 26.4331C15.9016 26.4331 14.1152 26.4331 12.53 26.4331C10.9449 26.4331 9.48565 26.4331 8.15214 26.4331C7.82505 26.4331 7.53571 26.4834 7.2841 26.5841C7.0325 26.6847 6.83121 26.8608 6.68025 27.1124C6.52929 27.364 6.4538 27.7037 6.4538 28.1314C6.4538 28.6598 6.4538 29.3014 6.4538 30.0562C6.4538 30.7859 6.4538 31.5533 6.4538 32.3584C6.4538 33.1635 6.4538 33.9435 6.4538 34.6983C6.4538 35.428 6.4538 36.057 6.4538 36.5854C6.4538 37.0886 6.34058 37.5037 6.11414 37.8308C5.88769 38.1327 5.59835 38.334 5.2461 38.4347C4.91901 38.5353 4.57935 38.5353 4.2271 38.4347C3.90001 38.334 3.62325 38.1327 3.3968 37.8308C3.17036 37.5037 3.05713 37.0886 3.05713 36.5854C3.05713 36.1828 3.05713 35.5286 3.05713 34.6228C3.05713 33.7171 3.05713 32.6603 3.05713 31.4526C3.05713 30.2449 3.05713 28.9869 3.05713 27.6785C3.05713 26.3702 3.05713 25.0996 3.05713 23.8667C3.05713 22.6339 3.05713 21.5268 3.05713 20.5455C3.05713 19.5643 3.05713 18.822 3.05713 18.3188C3.05713 17.8408 3.05713 17.3627 3.05713 16.8847C3.05713 16.3815 3.05713 15.8908 3.05713 15.4128C3.05713 14.9347 3.05713 14.4441 3.05713 13.9409C3.05713 13.3119 3.22068 12.8338 3.54776 12.5067C3.90001 12.1797 4.30258 12.0161 4.75547 12.0161C5.20836 12.0161 5.59835 12.1797 5.92543 12.5067C6.27768 12.8338 6.4538 13.3119 6.4538 13.9409ZM45.2027 21.0362C45.2027 21.6903 45.2027 22.2942 45.2027 22.8477C45.2027 23.4013 45.2027 23.9925 45.2027 24.6215C45.2027 25.2254 45.2027 25.9299 45.2027 26.735C45.2027 27.515 45.2027 28.4459 45.2027 29.5278C45.2027 30.962 44.9762 32.2326 44.5233 33.3397C44.0704 34.4467 43.4288 35.3902 42.5985 36.1702C41.7934 36.925 40.8373 37.5037 39.7302 37.9063C38.6483 38.3089 37.4658 38.5101 36.1826 38.5101C34.8994 38.5101 33.7043 38.2711 32.5972 37.7931C31.4902 37.315 30.5215 36.6357 29.6912 35.7551C28.8609 34.8745 28.2193 33.8429 27.7664 32.6603C27.3135 31.4526 27.0871 30.1317 27.0871 28.6975C27.0871 26.7853 27.4771 25.0996 28.257 23.6403C29.0622 22.1558 30.1441 20.9984 31.5027 20.1681C32.8866 19.3378 34.4339 18.9227 36.1449 18.9227C37.428 18.9227 38.6106 19.1617 39.6925 19.6398C40.7996 20.0926 41.7557 20.7594 42.5608 21.64C43.3911 22.4955 44.0327 23.5145 44.4856 24.697C44.9636 25.8796 45.2027 27.1879 45.2027 28.6221C45.2027 29.2008 45.2027 29.7669 45.2027 30.3204C45.2027 30.8488 45.2027 31.3646 45.2027 31.8678C45.2027 32.3458 45.2027 32.7987 45.2027 33.2264C45.2027 33.9058 45.2027 34.5348 45.2027 35.1135C45.2027 35.6922 45.2027 36.3212 45.2027 37.0005C45.2027 37.6295 45.0265 38.1076 44.6743 38.4347C44.3472 38.7618 43.9572 38.9253 43.5043 38.9253C43.0514 38.9253 42.6489 38.7618 42.2966 38.4347C41.9695 38.1076 41.806 37.6295 41.806 37.0005C41.806 36.5979 41.806 36.1828 41.806 35.7551C41.806 35.3273 41.806 34.9122 41.806 34.5096C41.806 34.0819 41.806 33.6542 41.806 33.2264C41.806 32.9497 41.806 32.5219 41.806 31.9433C41.806 31.3394 41.806 30.7355 41.806 30.1317C41.806 29.5027 41.806 28.9995 41.806 28.6221C41.806 27.3892 41.567 26.2947 41.0889 25.3386C40.6109 24.3825 39.9441 23.6403 39.0886 23.1119C38.2332 22.5835 37.2519 22.3194 36.1449 22.3194C35.3146 22.3194 34.5472 22.4829 33.8427 22.81C33.1382 23.1119 32.5343 23.5522 32.0311 24.1309C31.5531 24.6844 31.1757 25.3512 30.8989 26.1312C30.6221 26.9111 30.4837 27.7666 30.4837 28.6975C30.4837 29.6285 30.6221 30.4839 30.8989 31.2639C31.1757 32.0439 31.5656 32.7232 32.0689 33.3019C32.5721 33.8806 33.1759 34.3335 33.8804 34.6606C34.5849 34.9625 35.3523 35.1135 36.1826 35.1135C37.0129 35.1135 37.7677 35.0003 38.447 34.7738C39.1515 34.5474 39.7554 34.2077 40.2586 33.7548C40.7618 33.2768 41.1392 32.6855 41.3908 31.981C41.6676 31.2765 41.806 30.4588 41.806 29.5278C41.806 28.7982 41.806 28.0308 41.806 27.2257C41.806 26.4205 41.806 25.628 41.806 24.848C41.806 24.068 41.806 23.3509 41.806 22.6968C41.806 22.0174 41.806 21.4639 41.806 21.0362C41.806 20.4072 41.9695 19.9291 42.2966 19.602C42.6489 19.2749 43.0514 19.1114 43.5043 19.1114C43.9572 19.1114 44.3472 19.2749 44.6743 19.602C45.0265 19.9291 45.2027 20.4072 45.2027 21.0362ZM63.5441 36.5854C63.5441 36.057 63.5441 35.5035 63.5441 34.9248C63.5441 34.3209 63.5441 33.7296 63.5441 33.151C63.5441 32.5471 63.5441 31.9936 63.5441 31.4904C63.5441 30.8865 63.5441 30.2198 63.5441 29.4901C63.5441 28.7353 63.5441 27.9176 63.5441 27.0369C63.5441 25.9802 63.368 25.1122 63.0157 24.4328C62.6886 23.7283 62.198 23.2 61.5438 22.8477C60.8896 22.4955 60.0845 22.3194 59.1284 22.3194C58.2981 22.3194 57.5433 22.4577 56.864 22.7345C56.1846 22.9861 55.5934 23.3635 55.0901 23.8667C54.6121 24.3699 54.2347 24.9989 53.9579 25.7538C53.6812 26.5086 53.5428 27.3766 53.5428 28.3579C53.5428 28.7856 53.5428 29.3517 53.5428 30.0562C53.5428 30.7355 53.5428 31.4652 53.5428 32.2452C53.5428 33.0252 53.5428 33.8051 53.5428 34.5851C53.5428 35.3399 53.5428 36.0067 53.5428 36.5854C53.5428 37.0886 53.4295 37.5037 53.2031 37.8308C52.9767 38.1327 52.6873 38.334 52.3351 38.4347C52.008 38.5353 51.6683 38.5353 51.3161 38.4347C50.989 38.334 50.7122 38.1327 50.4858 37.8308C50.2593 37.5037 50.1461 37.0886 50.1461 36.5854C50.1461 36.1073 50.1461 35.4657 50.1461 34.6606C50.1461 33.8303 50.1461 32.9371 50.1461 31.981C50.1461 30.9997 50.1461 30.0562 50.1461 29.1504C50.1461 28.2195 50.1461 27.4144 50.1461 26.735C50.1461 26.0557 50.1461 25.5902 50.1461 25.3386C50.1461 24.8354 50.1461 24.3322 50.1461 23.829C50.1461 23.3258 50.1461 22.8226 50.1461 22.3194C50.1461 21.8161 50.1461 21.3129 50.1461 20.8097C50.1461 20.1807 50.3096 19.7027 50.6367 19.3756C50.989 19.0485 51.3915 18.8849 51.8444 18.8849C52.2973 18.8849 52.6873 19.0485 53.0144 19.3756C53.3666 19.7027 53.5428 20.1807 53.5428 20.8097C53.5428 21.3633 53.5428 21.879 53.5428 22.3571C53.5428 22.8351 53.5428 23.3132 53.5428 23.7912C53.5428 24.2693 53.5428 24.7851 53.5428 25.3386C53.5428 25.4896 53.5428 25.9047 53.5428 26.5841C53.5428 27.2382 53.5428 28.0434 53.5428 28.9995C53.5428 29.9304 53.5428 30.8991 53.5428 31.9055C53.5428 32.8868 53.5428 33.8051 53.5428 34.6606C53.5428 35.4909 53.5428 36.1325 53.5428 36.5854C53.5428 37.0886 53.4295 37.5037 53.2031 37.8308C52.9767 38.1327 52.6873 38.334 52.3351 38.4347C52.008 38.5353 51.6683 38.5353 51.3161 38.4347C50.989 38.334 50.7122 38.1327 50.4858 37.8308C50.2593 37.5037 50.1461 37.0886 50.1461 36.5854C50.1461 36.0067 50.1461 35.4028 50.1461 34.7738C50.1461 34.1196 50.1461 33.4529 50.1461 32.7735C50.1461 32.0942 50.1461 31.4149 50.1461 30.7355C50.1461 30.0311 50.1461 29.3643 50.1461 28.7353C50.1461 27.4521 50.3725 26.2192 50.8254 25.0367C51.3035 23.8541 51.9577 22.81 52.788 21.9042C53.6183 20.9733 54.5995 20.2436 55.7317 19.7152C56.864 19.1869 58.0842 18.9227 59.3926 18.9227C60.4745 18.9227 61.4683 19.0988 62.3741 19.4511C63.3051 19.8033 64.1102 20.3317 64.7895 21.0362C65.4689 21.7155 65.9972 22.5584 66.3746 23.5648C66.752 24.5712 66.9408 25.7286 66.9408 27.0369C66.9408 27.6156 66.9408 28.2824 66.9408 29.0372C66.9408 29.7669 66.9408 30.5846 66.9408 31.4904C66.9408 32.1194 66.9408 32.7106 66.9408 33.2642C66.9408 33.7926 66.9408 34.3209 66.9408 34.8493C66.9408 35.3777 66.9408 35.9564 66.9408 36.5854C66.9408 37.2144 66.7646 37.6924 66.4124 38.0195C66.0853 38.3466 65.6953 38.5101 65.2424 38.5101C64.7895 38.5101 64.387 38.3466 64.0347 38.0195C63.7076 37.6924 63.5441 37.2144 63.5441 36.5854Z" fill="white"></path><path d="M81.8675 22.2219C83.9236 23.1214 84.3841 25.4345 84.3573 26.4786C84.5822 27.5387 85.4148 27.8305 85.803 27.8439C86.325 27.8439 87.3691 27.5709 87.3691 26.4786C87.337 24.551 86.3117 22.4896 85.803 21.6998C84.2904 19.7589 80.0364 16.7042 75.1211 20.0132C70.2058 23.3222 71.9218 29.477 73.3943 32.1408C74.7998 34.4566 79.177 38.7026 85.4416 37.1605C91.7062 35.6184 93.7007 30.066 93.9148 27.4825V10.3754C92.3487 8.20684 91.2912 9.70606 90.903 10.6966V26.4786C91.0636 28.2589 90.2685 32.2291 85.803 33.8676C80.2211 35.9156 77.0888 31.8195 76.2053 30.9762C75.3219 30.1329 73.9163 25.9565 75.5226 23.788C77.1289 21.6195 79.2975 21.0974 81.8675 22.2219Z" fill="white" stroke="white" stroke-width="0.229591"></path><path d="M85.0343 4.95407C85.0343 4.15252 85.6841 3.50272 86.4857 3.50272C87.2872 3.50272 87.937 4.15252 87.937 4.95407V17.4833C87.937 18.2848 87.2872 18.9346 86.4857 18.9346C85.6841 18.9346 85.0343 18.2848 85.0343 17.4833V4.95407Z" fill="#159EEC" stroke="#159EEC" stroke-width="0.229591"></path><path d="M79.3322 1.66115C79.3322 0.859592 79.982 0.209801 80.7835 0.209801C81.5851 0.209801 82.2349 0.859592 82.2349 1.66115V14.1904C82.2349 14.9919 81.5851 15.6417 80.7835 15.6417C79.982 15.6417 79.3322 14.9919 79.3322 14.1904V1.66115Z" fill="#159EEC" stroke="#159EEC" stroke-width="0.229591"></path><path d="M73.6295 4.95407C73.6295 4.15252 74.2793 3.50272 75.0809 3.50272C75.8824 3.50272 76.5322 4.15252 76.5322 4.95407V15.5557C76.5322 16.3572 75.8824 17.007 75.0809 17.007C74.2793 17.007 73.6295 16.3572 73.6295 15.5557V4.95407Z" fill="#159EEC" stroke="#159EEC" stroke-width="0.229591"></path></g></g><defs><clipPath id="clip0_207_1528"><rect width="211" height="48" fill="white"></rect></clipPath><clipPath id="clip1_207_1528"><rect width="211" height="48" fill="white"></rect></clipPath></defs></svg>